<?xml version="1.0" encoding="utf-8"?>
<!-- Designed by Vexels.com - 2020 All Rights Reserved - https://vexels.com/terms-and-conditions/  -->
<svg version="1.1" id="Layer_1" xmlns="http://www.w3.org/2000/svg" xmlns:xlink="http://www.w3.org/1999/xlink" x="0px" y="0px"
	 viewBox="0 0 1200 1200" enable-background="new 0 0 1200 1200" xml:space="preserve">
<g>
	<path fill="#C02B3F" d="M1124.396,706.26c-22.501-8.758-53.673,16.332-73.418,57.214l-61.779-23.426
		c15.835-44.108,24.513-91.625,24.513-141.183c0-75.453-20.1-146.17-55.087-207.27l34.638-20.185
		c24.361,30.295,54.089,45.404,72.888,34.666c23.163-13.227,20.973-60.662-4.892-105.951
		c-25.864-45.286-65.606-71.275-88.767-58.049c-20.967,11.975-21.088,51.989-1.745,93.062l-35.21,20.519
		c-46.741-65.166-111.729-116.29-187.533-145.953l10.106-35.383c27.061,3.499,49.458-3.3,53.759-17.875
		c5.3-17.956-18.867-40.911-53.974-51.272c-35.109-10.36-67.865-4.203-73.165,13.752c-4.797,16.255,14.591,36.576,44.35,47.972
		l-9.362,32.781c-39.142-12.132-80.74-18.675-123.869-18.675c-42.871,0-84.224,6.481-123.16,18.474l-21.874-60.049
		c34.135-18.601,54.279-45.178,47.046-65.586c-8.91-25.14-55.979-31.398-105.138-13.977c-49.156,17.42-81.784,51.922-72.874,77.062
		c8.066,22.76,47.423,29.975,91.276,18.225l21.476,58.958c-75.895,32.244-140.242,86.317-185.284,154.303l-80.955-34.881
		c10.776-37.352,6.044-70.361-13.554-79.567c-24.14-11.343-61.687,17.727-83.866,64.93c-22.176,47.201-20.584,94.66,3.554,106.003
		c21.854,10.268,54.661-12.644,77.14-52.088l75.831,32.648c-30.268,57.843-47.478,123.599-47.478,193.407
		c0,64.688,14.712,125.937,40.952,180.601l-53.295,24.032c-14.205-23.298-33.523-36.513-47.585-30.746
		c-17.322,7.103-20.104,40.316-6.214,74.185c13.889,33.868,39.188,55.565,56.51,48.462c15.68-6.43,19.398-34.269,9.665-64.612
		l54.206-26.122c52.583,92.702,139.518,163.304,243.565,194.47l-11.466,47c-38.719-3.482-70.228,7.438-75.543,28.427
		c-6.549,25.856,29.126,57.195,79.684,70c50.554,12.804,96.847,2.224,103.395-23.632c5.928-23.408-22.8-51.262-65.797-65.837
		l11.188-45.852c25.466,4.849,51.716,7.486,78.594,7.486c78.853,0,152.588-21.867,215.517-59.829l21.318,32.818
		c-20.411,18.108-29.995,39.462-21.828,52.279c10.059,15.788,43.241,12.642,74.114-7.028c30.872-19.67,47.742-48.416,37.683-64.204
		c-9.109-14.293-37.164-13.019-65.304,1.937l-20.95-32.254c58.097-40.989,105.334-96.336,136.366-160.988l64.196,24.342
		c-8.211,37.998-1.243,70.609,18.935,78.461c24.857,9.675,60.341-21.881,79.257-70.483
		C1154.066,763.176,1149.251,715.935,1124.396,706.26z M783.848,305.881c28.519,0,51.638,23.119,51.638,51.639
		s-23.119,51.639-51.638,51.639c-28.521,0-51.64-23.12-51.64-51.639S755.327,305.881,783.848,305.881z M333.176,658.008
		c-32.663,0-59.142-26.479-59.142-59.143s26.479-59.142,59.142-59.142c32.664,0,59.144,26.479,59.144,59.142
		S365.84,658.008,333.176,658.008z M333.176,370.62c0-41.795,33.882-75.677,75.677-75.677c41.796,0,75.678,33.882,75.678,75.677
		s-33.882,75.677-75.678,75.677C367.058,446.297,333.176,412.415,333.176,370.62z M502.729,928.288
		c-41.795,0-75.677-33.882-75.677-75.677s33.881-75.677,75.677-75.677c41.794,0,75.677,33.881,75.677,75.677
		S544.523,928.288,502.729,928.288z M612.949,564.582c-32.664,0-59.143-26.479-59.143-59.142s26.479-59.143,59.143-59.143
		c32.663,0,59.142,26.479,59.142,59.143S645.612,564.582,612.949,564.582z M755.037,896.746c-28.519,0-51.638-23.119-51.638-51.639
		s23.119-51.639,51.638-51.639c28.521,0,51.641,23.12,51.641,51.639S783.558,896.746,755.037,896.746z M856.518,704.52
		c-51.903,0-93.976-42.075-93.976-93.977c0-51.902,42.073-93.976,93.976-93.976c51.902,0,93.976,42.074,93.976,93.976
		C950.494,662.445,908.419,704.52,856.518,704.52z"/>
	<circle fill="#FFD898" cx="856.518" cy="610.544" r="93.976"/>
	<path fill="#FFD898" d="M484.531,370.62c0-41.795-33.882-75.677-75.678-75.677c-41.794,0-75.677,33.882-75.677,75.677
		s33.882,75.677,75.677,75.677C450.649,446.297,484.531,412.415,484.531,370.62z"/>
	<circle fill="#FFD898" cx="502.729" cy="852.611" r="75.677"/>
	<path fill="#FFD898" d="M612.949,446.297c-32.664,0-59.143,26.479-59.143,59.143s26.479,59.142,59.143,59.142
		c32.663,0,59.142-26.479,59.142-59.142S645.612,446.297,612.949,446.297z"/>
	<path fill="#FFD898" d="M333.176,539.723c-32.663,0-59.142,26.479-59.142,59.142s26.479,59.143,59.142,59.143
		c32.664,0,59.144-26.479,59.144-59.143S365.84,539.723,333.176,539.723z"/>
	<path fill="#FFD898" d="M755.037,793.468c-28.519,0-51.638,23.12-51.638,51.639s23.119,51.639,51.638,51.639
		c28.521,0,51.641-23.119,51.641-51.639S783.558,793.468,755.037,793.468z"/>
	<path fill="#FFD898" d="M783.848,409.159c28.519,0,51.638-23.12,51.638-51.639s-23.119-51.639-51.638-51.639
		c-28.521,0-51.64,23.119-51.64,51.639S755.327,409.159,783.848,409.159z"/>
</g>
</svg>
